<?xml version="1.0" standalone="no"?>
<!DOCTYPE svg PUBLIC "-//W3C//DTD SVG 20010904//EN"
 "http://www.w3.org/TR/2001/REC-SVG-20010904/DTD/svg10.dtd">
<svg version="1.0" xmlns="http://www.w3.org/2000/svg"
 width="2172.000000pt" height="2172.000000pt" viewBox="0 0 2172.000000 2172.000000"
 preserveAspectRatio="xMidYMid meet">

<g transform="translate(0.000000,2172.000000) scale(0.100000,-0.100000)"
fill="#000000" stroke="none">
<path d="M10473 21709 c-3236 -114 -6234 -1657 -8222 -4234 -1906 -2469 -2651
-5673 -2036 -8750 516 -2580 1947 -4873 4047 -6488 2466 -1895 5664 -2636
8733 -2022 2573 515 4860 1938 6474 4030 1906 2469 2651 5673 2036 8750 -516
2580 -1947 4873 -4047 6488 -1161 892 -2521 1549 -3950 1907 -987 248 -2012
355 -3035 319z m2832 -2970 c49 -12 72 -32 77 -68 2 -21 -2 -26 -29 -32 -17
-3 -51 -22 -75 -41 -23 -19 -65 -50 -93 -68 -27 -19 -96 -79 -153 -134 -136
-132 -167 -190 -166 -315 1 -132 21 -165 195 -337 79 -78 166 -154 193 -169
27 -15 98 -79 158 -141 75 -77 122 -117 151 -129 26 -11 80 -54 147 -119 58
-57 139 -128 180 -158 41 -31 121 -103 178 -161 56 -58 126 -119 155 -136 29
-16 117 -89 197 -161 80 -73 167 -146 193 -164 31 -21 96 -91 174 -187 68 -85
145 -179 169 -209 50 -61 263 -515 264 -560 0 -14 9 -61 20 -105 12 -49 20
-114 20 -168 0 -72 4 -95 23 -130 l22 -42 1 -1805 2 -1806 46 -85 c25 -47 46
-93 46 -102 0 -11 8 -17 21 -17 35 0 158 -70 189 -108 45 -54 53 -103 48 -275
-4 -143 -6 -156 -29 -186 -23 -32 -24 -38 -22 -193 2 -123 -1 -177 -14 -227
-11 -45 -17 -119 -19 -233 -2 -158 -4 -170 -29 -222 -26 -53 -26 -57 -19 -184
l7 -129 -34 -94 c-18 -51 -69 -154 -113 -229 -88 -151 -206 -388 -206 -417 0
-10 -11 -40 -25 -68 -13 -27 -25 -60 -25 -71 0 -12 -16 -62 -35 -112 -19 -49
-37 -109 -41 -133 -3 -24 -12 -54 -20 -66 -7 -12 -30 -72 -50 -135 -20 -62
-43 -126 -51 -142 -8 -16 -28 -81 -44 -145 -17 -64 -59 -206 -94 -316 -35
-110 -71 -229 -80 -265 -17 -68 -118 -269 -190 -380 -23 -36 -48 -76 -55 -90
-7 -14 -23 -36 -35 -50 -40 -44 -212 -393 -219 -446 -4 -27 -25 -104 -47 -171
-38 -118 -39 -126 -37 -245 3 -113 1 -126 -20 -160 l-23 -37 -2 -498 -2 -498
23 -42 c20 -39 22 -55 22 -212 0 -251 19 -295 154 -361 46 -23 100 -55 120
-73 41 -36 175 -284 200 -371 9 -28 24 -69 36 -91 11 -21 20 -48 20 -58 0 -10
13 -55 29 -100 15 -45 34 -113 40 -150 11 -66 69 -225 112 -310 12 -22 34 -85
51 -141 16 -56 47 -138 69 -184 21 -46 41 -100 45 -120 10 -54 21 -70 62 -90
26 -12 38 -25 41 -42 4 -30 17 -40 51 -40 20 0 30 -9 45 -42 18 -37 32 -48
140 -104 66 -35 143 -68 170 -75 28 -6 88 -31 135 -54 47 -23 107 -47 134 -54
27 -7 70 -23 96 -36 27 -14 69 -29 94 -35 25 -5 109 -38 186 -72 l141 -61 -93
-55 c-316 -186 -840 -449 -1183 -595 -1336 -567 -2713 -847 -4165 -847 -1466
0 -2847 284 -4200 863 -356 152 -1150 558 -1150 588 0 11 81 48 160 74 30 9
89 34 130 55 41 21 99 46 129 55 30 9 98 38 151 65 53 27 114 52 136 56 21 3
57 17 79 30 23 13 74 35 115 48 112 37 143 51 190 91 24 20 60 45 81 55 36 19
79 63 79 82 0 5 22 41 48 81 45 67 160 347 177 432 8 38 56 145 66 145 4 0 10
30 14 67 4 38 12 77 18 88 6 11 19 47 28 80 68 233 144 446 192 542 45 87 162
217 240 266 56 34 80 43 158 61 14 3 53 34 86 69 47 49 63 73 68 103 3 21 15
57 25 79 17 33 20 61 20 165 1 90 5 136 17 165 12 30 16 79 17 194 2 131 4
154 19 162 32 18 40 84 32 267 l-6 172 27 58 28 57 1 235 0 235 -37 71 c-62
120 -187 305 -249 371 -33 34 -59 66 -59 72 0 6 -19 34 -43 63 -60 74 -273
462 -287 521 -6 27 -23 74 -39 105 -15 31 -31 74 -35 95 -4 21 -16 53 -27 70
-10 18 -19 46 -19 62 0 17 -11 48 -25 70 -16 27 -24 55 -25 86 0 26 -7 63 -15
82 -8 21 -15 67 -15 106 0 46 -7 87 -19 119 -11 26 -22 70 -26 96 -4 27 -16
56 -27 66 -15 13 -21 36 -25 96 -3 47 -11 86 -20 96 -8 9 -36 81 -63 160 -50
151 -88 252 -119 321 -10 23 -31 79 -46 124 -14 46 -30 83 -35 83 -5 0 -11 30
-15 68 -4 42 -22 107 -49 177 -28 71 -51 154 -65 235 -13 69 -29 145 -36 170
-8 25 -19 74 -24 109 -6 36 -17 68 -26 75 -10 7 -18 38 -24 90 -5 43 -13 81
-19 85 -18 12 -32 50 -32 91 0 22 -9 59 -21 82 -16 32 -20 58 -20 123 0 45 -6
108 -14 139 -9 35 -18 133 -22 252 -3 107 -10 194 -14 194 -5 0 -16 14 -24 30
-13 25 -14 38 -5 72 7 23 18 51 25 62 7 12 18 45 25 74 12 53 15 56 114 129
113 83 191 155 210 193 8 14 17 43 20 65 4 21 16 56 27 77 18 36 19 78 19
1492 0 1442 0 1455 21 1543 19 81 21 111 17 384 -3 284 -2 298 17 319 14 15
21 43 26 98 4 43 16 97 28 122 12 25 21 66 21 93 0 33 8 62 24 90 14 23 32 69
42 102 19 68 116 270 145 301 11 12 34 44 52 71 75 118 112 171 153 215 24 25
52 66 63 90 26 54 365 393 433 432 26 14 95 76 154 136 71 72 120 114 147 125
23 9 58 32 79 50 20 19 56 47 80 62 24 15 60 43 82 61 21 19 59 43 85 54 25
11 73 40 106 63 33 23 89 57 125 75 36 18 87 48 113 68 60 43 390 208 443 220
40 10 455 170 509 197 17 9 102 37 190 64 88 27 198 62 245 79 47 17 101 36
120 42 19 7 58 21 85 31 28 10 81 23 119 28 38 6 72 14 75 20 10 16 59 31 102
31 22 0 49 5 60 11 11 5 46 14 77 19 31 6 111 27 177 49 66 21 152 42 190 46
39 4 84 15 100 25 17 10 59 21 95 24 36 4 81 11 100 16 19 5 83 11 141 12 83
3 112 7 134 22 19 13 58 22 113 27 64 6 89 12 106 28 20 18 35 21 124 21 88 0
107 3 148 25 38 20 61 25 123 25 42 0 101 7 131 15 30 8 92 15 138 15 72 0 88
3 120 25 36 25 39 25 255 25 126 0 237 -5 262 -11z"/>
</g>
</svg>
